<?xml version="1.0" standalone="no"?>
<!DOCTYPE svg PUBLIC "-//W3C//DTD SVG 20010904//EN"
 "http://www.w3.org/TR/2001/REC-SVG-20010904/DTD/svg10.dtd">
<svg version="1.0" xmlns="http://www.w3.org/2000/svg"
 width="4638.000000pt" height="1660.000000pt" viewBox="0 0 4638.000000 1660.000000"
 preserveAspectRatio="xMidYMid meet">

<g transform="translate(0.000000,1660.000000) scale(0.100000,-0.100000)"
fill="#000000" stroke="none">
<path d="M8590 15685 c-224 -38 -429 -126 -598 -257 -130 -101 -4780 -4188
-4852 -4265 -224 -238 -350 -561 -350 -898 0 -539 324 -1023 822 -1229 116
-48 272 -85 389 -93 l96 -6 6 -3421 c5 -3123 7 -3429 22 -3516 48 -272 163
-503 349 -698 232 -243 511 -379 847 -413 364 -36 741 119 1045 431 52 52 612
698 1245 1435 l1150 1340 1797 6 c1782 5 1798 5 1907 26 612 119 1036 521
1104 1048 9 67 11 554 9 1872 l-3 1782 62 11 c539 94 985 534 1104 1090 32
148 32 391 1 537 -53 246 -165 473 -316 639 -79 88 -4772 4278 -4866 4345
-160 114 -367 201 -559 233 -111 19 -304 19 -411 1z m2552 -3380 l2336 -2060
-644 -3 -644 -2 0 -2460 0 -2460 -1989 0 -1988 0 -1374 -1552 -1374 -1551 -7
1919 c-4 1055 -10 2865 -14 4022 l-6 2102 -527 0 c-289 0 -583 3 -652 7 l-126
6 2331 2048 c1282 1127 2334 2047 2337 2046 3 -1 1056 -929 2341 -2062z"/>
<path d="M8780 9650 l0 -500 465 0 465 0 0 500 0 500 -465 0 -465 0 0 -500z"/>
<path d="M10110 9650 l0 -500 465 0 465 0 0 500 0 500 -465 0 -465 0 0 -500z"/>
<path d="M8782 8358 l3 -463 463 -3 462 -2 0 465 0 465 -465 0 -465 0 2 -462z"/>
<path d="M10110 8355 l0 -465 465 0 465 0 0 465 0 465 -465 0 -465 0 0 -465z"/>
<path d="M27970 14450 c-1119 -80 -2075 -465 -2930 -1181 -159 -133 -461 -428
-601 -588 -894 -1015 -1320 -2195 -1286 -3556 32 -1231 412 -2252 1187 -3186
134 -160 539 -565 700 -699 623 -518 1286 -859 2021 -1039 440 -108 774 -146
1289 -146 431 0 682 23 1039 96 384 78 877 238 1121 365 147 77 251 192 309
344 59 151 63 283 15 430 -93 282 -341 460 -638 460 -114 0 -163 -13 -362 -94
-196 -79 -339 -128 -512 -172 -567 -146 -1179 -161 -1767 -43 -590 118 -1119
367 -1605 755 -158 126 -488 452 -616 607 -619 752 -913 1654 -864 2650 29
568 150 1049 384 1517 202 403 443 729 792 1070 437 427 895 715 1425 898 696
240 1515 275 2244 97 619 -152 1154 -443 1662 -907 575 -525 973 -1176 1152
-1884 85 -338 115 -594 115 -989 0 -323 -13 -478 -60 -735 -95 -513 -268 -944
-557 -1383 l-91 -138 -1081 1080 c-779 779 -1098 1091 -1143 1120 -209 132
-500 128 -708 -11 -124 -83 -223 -215 -267 -353 -27 -85 -31 -288 -8 -370 17
-62 64 -159 99 -205 46 -62 3855 -3880 3917 -3927 233 -177 567 -177 802 1
111 84 203 222 238 357 13 49 16 94 13 194 -5 143 -26 217 -90 320 -17 27
-211 230 -430 451 l-399 400 82 110 c585 783 915 1680 989 2689 13 180 13 620
0 800 -51 690 -208 1287 -495 1870 -255 520 -578 967 -1010 1401 -889 891
-1915 1385 -3135 1509 -183 19 -755 28 -940 15z"/>
<path d="M35667 14244 c-187 -40 -287 -92 -402 -208 -89 -90 -133 -159 -173
-268 l-27 -73 0 -4595 0 -4595 32 -83 c110 -286 364 -462 666 -462 118 0 203
19 302 65 183 87 322 251 383 453 16 53 17 278 22 3668 l5 3612 2874 -3659
c1581 -2012 2895 -3684 2920 -3715 137 -169 234 -246 380 -298 81 -29 94 -31
231 -31 133 0 152 2 227 28 216 74 384 251 455 477 l23 75 0 4510 c0 4338 -1
4512 -18 4575 -39 138 -133 285 -234 365 -72 57 -197 119 -283 142 -41 10
-104 16 -170 16 -126 0 -204 -18 -315 -73 -181 -89 -312 -249 -372 -455 -17
-57 -18 -259 -23 -3607 l-5 -3547 -2954 3760 c-3185 4053 -2991 3813 -3140
3881 -123 57 -266 71 -404 42z"/>
<path d="M17433 14001 c-235 -64 -435 -267 -498 -506 -13 -53 -15 -528 -15
-4401 0 -4259 0 -4342 19 -4416 52 -201 199 -382 386 -474 166 -81 -97 -74
2822 -74 l2612 0 80 25 c153 49 318 188 394 332 53 101 77 204 77 327 0 191
-54 320 -189 457 -66 66 -104 95 -161 123 -145 70 26 66 -2457 66 l-2243 0 0
3943 c0 2246 -4 3982 -10 4035 -11 120 -41 206 -101 296 -79 119 -196 212
-322 256 -90 33 -293 38 -394 11z"/>
</g>
</svg>
